<svg width="353" height="307" viewBox="11 92.28 352.68 306.25" fill="none" xmlns="http://www.w3.org/2000/svg">
  <g filter="url(#filter0_d_2616_182)">
    <path d="M45.4451 234.168C40.3888 215.297 37.8607 205.862 39.6019 197.671C41.1334 190.465 44.9068 183.93 50.3811 179.001C56.6045 173.397 66.0396 170.869 84.9099 165.813L230.784 126.726C249.654 121.67 259.089 119.141 267.28 120.883C274.486 122.414 281.022 126.187 285.951 131.662C291.554 137.885 294.082 147.32 299.139 166.191L321.231 248.641C326.287 267.511 328.816 276.946 327.074 285.138C325.543 292.343 321.769 298.879 316.295 303.808C310.072 309.412 300.637 311.94 281.766 316.996L135.893 356.083C117.022 361.139 107.587 363.667 99.3958 361.926C92.1903 360.394 85.6547 356.621 80.7256 351.147C75.122 344.923 72.5939 335.488 67.5376 316.618L45.4451 234.168Z" fill="url(#paint0_linear_2616_182)"/>
    <path d="M54.6114 228.737C50.7449 214.307 48.8116 207.092 50.1431 200.828C51.3143 195.318 54.1998 190.32 58.386 186.551C63.1451 182.266 70.3602 180.333 84.7904 176.466L236.214 135.892C250.644 132.026 257.859 130.092 264.123 131.424C269.633 132.595 274.631 135.481 278.4 139.667C282.685 144.426 284.619 151.641 288.485 166.071L312.065 254.071C315.931 268.501 317.864 275.716 316.533 281.98C315.362 287.49 312.476 292.488 308.29 296.258C303.531 300.543 296.316 302.476 281.886 306.343L130.462 346.916C116.032 350.783 108.817 352.716 102.553 351.385C97.043 350.213 92.0452 347.328 88.2759 343.142C83.9908 338.383 82.0575 331.168 78.191 316.737L54.6114 228.737Z" fill="#11141A"/>
    <ellipse cx="121.262" cy="279.28" rx="21.5449" ry="21.5449" transform="rotate(-15 121.262 279.28)" fill="white"/>
    <ellipse cx="256.036" cy="243.168" rx="21.5449" ry="21.5449" transform="rotate(-15 256.036 243.168)" fill="white"/>
    <path d="M209.46 255.648C210.192 258.381 210.379 261.231 210.009 264.036C209.64 266.841 208.722 269.546 207.307 271.997C205.893 274.447 204.009 276.594 201.764 278.317C199.52 280.039 196.958 281.303 194.225 282.035C191.492 282.767 188.642 282.954 185.837 282.585C183.031 282.215 180.327 281.297 177.876 279.883C175.426 278.468 173.278 276.584 171.556 274.34C169.834 272.095 168.57 269.533 167.838 266.8L175.75 264.68C176.204 266.374 176.987 267.962 178.055 269.353C179.122 270.744 180.453 271.912 181.972 272.789C183.491 273.665 185.167 274.234 186.906 274.463C188.644 274.692 190.411 274.576 192.105 274.123C193.799 273.669 195.387 272.886 196.778 271.818C198.169 270.751 199.336 269.42 200.213 267.901C201.09 266.382 201.659 264.706 201.888 262.967C202.117 261.228 202.001 259.462 201.547 257.768L209.46 255.648Z" fill="white"/>
  </g>
<defs>
<filter id="filter0_d_2616_182" x="11" y="92.2808" width="352.676" height="306.247" filterUnits="userSpaceOnUse" color-interpolation-filters="sRGB">
<feFlood flood-opacity="0" result="BackgroundImageFix"/>
<feColorMatrix in="SourceAlpha" type="matrix" values="0 0 0 0 0 0 0 0 0 0 0 0 0 0 0 0 0 0 127 0" result="hardAlpha"/>
<feOffset dx="4" dy="4"/>
<feGaussianBlur stdDeviation="12"/>
<feComposite in2="hardAlpha" operator="out"/>
<feColorMatrix type="matrix" values="0 0 0 0 0.203922 0 0 0 0 0.172549 0 0 0 0 0.156863 0 0 0 0.25 0"/>
<feBlend mode="normal" in2="BackgroundImageFix" result="effect1_dropShadow_2616_182"/>
<feBlend mode="normal" in="SourceGraphic" in2="effect1_dropShadow_2616_182" result="shape"/>
</filter>
<linearGradient id="paint0_linear_2616_182" x1="163.244" y1="348.754" x2="284.694" y2="112.281" gradientUnits="userSpaceOnUse">
<stop offset="0.0199994" stop-color="#47F3C2"/>
<stop offset="0.376516" stop-color="#3573F5"/>
<stop offset="0.735408" stop-color="#B351EB"/>
</linearGradient>
<clipPath id="clip0_2616_182">
<rect width="960" height="320" rx="24" fill="white"/>
</clipPath>
</defs>
</svg>
